<svg xmlns="http://www.w3.org/2000/svg" xmlns:xlink="http://www.w3.org/1999/xlink" version="1.1" x="0px" y="0px" viewBox="0 0 64 80" style="enable-background:new 0 0 64 64;" xml:space="preserve"><g><polygon points="16.926,61 25,61 25,58.5 16.228,51.921  "/><path d="M26,9c1.374,0,2.696,0.218,3.94,0.614C29.971,9.412,30,9.208,30,9c0-2.206-1.794-4-4-4s-4,1.794-4,4   c0,0.208,0.029,0.412,0.06,0.614C23.304,9.218,24.626,9,26,9z"/><polygon points="10,50 10,61 14.92,61 14.074,50  "/><path d="M13,34.199V22c0-5.071,2.925-9.461,7.17-11.603C20.062,9.942,20,9.476,20,9c0-1.648,0.668-3.142,1.747-4.228   c-1.759-1.513-4.216-2.127-6.487-1.557C11.569,4.139,9,7.429,9,11.219c0,1.053,0.198,2.084,0.59,3.063l0.295,0.738   c1.187,2.967,1.269,6.142,0.23,8.941c-0.373,1.005-0.817,1.782-1.247,2.534c-0.484,0.847-0.945,1.663-1.289,2.784   C9.56,29.945,11,31.798,11,34H9c0-1.654-1.346-3-3-3s-3,1.354-3,3.02v0.101C3,35.708,4.292,37,5.881,37h2.623   C9.697,35.675,11.242,34.676,13,34.199z"/><path d="M22,41h8c1.103,0,2-0.897,2-2v-0.682l-3,1.125v-3.279C28.103,36.698,27.072,37,26,37c-1.072,0-2.103-0.302-3-0.836v3.279   l-3-1.125V39C20,40.103,20.897,41,22,41z"/><path d="M29,19h3c1.654,0,3,1.346,3,3v6.438c0,1.379-0.935,2.576-2.272,2.911L31,31.781v4.776l6-2.25V22   c0-5.024-3.39-9.263-8-10.574V19z"/><path d="M19,22v6.438c0,0.46,0.312,0.859,0.758,0.97L23,30.219v3.351c0.734,0.897,1.832,1.43,3,1.43c1.168,0,2.266-0.533,3-1.429   v-3.351l3.242-0.811c0.446-0.111,0.758-0.51,0.758-0.97V22c0-0.551-0.449-1-1-1H20C19.449,21,19,21.449,19,22z"/><path d="M26,11c-0.338,0-0.67,0.021-1,0.051V19h2v-7.949C26.67,11.021,26.338,11,26,11z"/><path d="M15,22v12.307l6,2.25v-4.776l-1.728-0.432C17.935,31.015,17,29.818,17,28.438V22c0-1.654,1.346-3,3-3h3v-7.574   C18.39,12.737,15,16.976,15,22z"/><path d="M39.02,34.205c2.244,0.615,4.145,2.075,5.395,3.988l3.249-4.115l-3.743-3.743L39.02,34.205z"/><path d="M38.075,36.04L34,37.568V39c0,2.206-1.794,4-4,4h-3v8l8.624-6.468c-0.15-0.75-0.331-1.491-0.573-2.216l1.897-0.632   c0.681,2.042,1.028,4.166,1.045,6.316h4.471l0.285-0.428c0.818-1.227,1.25-2.655,1.25-4.129C44,39.884,41.469,36.75,38.075,36.04z"/><path d="M16,48.162c0,0.408,0.013,0.765,0.032,1.112L25,56v-2.5l-8.945-6.709C16.021,47.247,16,47.704,16,48.162z"/><path d="M57,17c-2.206,0-4,1.794-4,4c0,0.219,0.024,0.449,0.075,0.726l0.096,0.517L48.914,26.5l2.586,2.586l4.257-4.257   l0.517,0.096C56.551,24.976,56.781,25,57,25c2.206,0,4-1.794,4-4S59.206,17,57,17z"/><polygon points="37.08,61 42,61 42,50 37.926,50  "/><polygon points="43.085,26.671 51.329,34.915 53.972,34.386 43.614,24.028  "/><path d="M18,39v-1.432l-4.075-1.528C10.531,36.75,8,39.884,8,43.443c0,1.474,0.432,2.902,1.25,4.129L9.535,48h4.475   c0.025-2.202,0.37-4.3,1.042-6.316l1.897,0.632c-0.242,0.727-0.424,1.469-0.574,2.216L25,51v-8h-3C19.794,43,18,41.206,18,39z"/><polygon points="27,61 35.074,61 35.772,51.921 27,58.5  "/><path d="M27,53.5V56l8.96-6.72c0.019-0.343,0.04-0.685,0.04-1.029c0-0.493-0.021-0.978-0.057-1.459L27,53.5z"/></g><text x="0" y="79" fill="#000000" font-size="5px" font-weight="bold" font-family="'Helvetica Neue', Helvetica, Arial-Unicode, Arial, Sans-serif">Created by Eucalyp</text><text x="0" y="84" fill="#000000" font-size="5px" font-weight="bold" font-family="'Helvetica Neue', Helvetica, Arial-Unicode, Arial, Sans-serif">from the Noun Project</text></svg>